<svg width="53" height="46" viewBox="0 0 53 46" fill="none" xmlns="http://www.w3.org/2000/svg">
<g filter="url(#filter0_d)">
<rect x="8" y="5" width="37" height="30" fill="white"/>
</g>
<g clip-path="url(#clip0)">
<path d="M34.9407 20.5081L32.707 15.7244C32.6415 15.5905 32.4995 15.5116 32.3512 15.5268H30.4535C30.2351 15.5268 30.0581 15.7037 30.0581 15.9221C30.0581 16.1405 30.2351 16.3175 30.4535 16.3175H32.0942L33.9326 20.2709H31.6791C30.6574 20.2659 29.7281 20.8621 29.307 21.7931C29.002 22.4334 28.3557 22.841 27.6465 22.8407H25.3535C24.6443 22.841 23.9981 22.4334 23.693 21.7931C23.2719 20.8621 22.3426 20.2659 21.3209 20.2709H19.107L21.2814 16.3175H22.5465C22.7649 16.3175 22.9419 16.1405 22.9419 15.9221C22.9419 15.7037 22.7649 15.5268 22.5465 15.5268H21.0442C20.9013 15.5132 20.7632 15.5823 20.6884 15.7047L18.0791 20.4884C18.0333 20.5289 18.005 20.5856 18 20.6465V25.5686C18.0315 26.6766 18.9279 27.5643 20.036 27.5849H32.964C34.0721 27.5643 34.9685 26.6766 35 25.5686V20.6465C34.9925 20.5961 34.972 20.5484 34.9407 20.5081ZM34.2093 25.5686C34.1786 26.2399 33.6357 26.7742 32.964 26.7942H20.036C19.3643 26.7742 18.8214 26.24 18.7907 25.5686V21.0616H21.3209C22.0302 21.0613 22.6763 21.469 22.9814 22.1093C23.4025 23.0402 24.3318 23.6365 25.3535 23.6314H27.6465C28.6682 23.6365 29.5975 23.0402 30.0186 22.1093C30.3236 21.469 30.9698 21.0613 31.6791 21.0616H34.2093V25.5686Z" fill="#181818"/>
<path d="M26.2233 20.5674C26.3635 20.7203 26.6011 20.7305 26.7539 20.5903C26.7618 20.583 26.7695 20.5753 26.7767 20.5674L29.4651 17.8593C29.5961 17.6846 29.5607 17.4368 29.386 17.3058C29.2454 17.2004 29.0521 17.2004 28.9116 17.3058L26.8953 19.3221V11.8105C26.8953 11.5921 26.7183 11.4151 26.4999 11.4151C26.2816 11.4151 26.1046 11.5921 26.1046 11.8105V19.3221L24.0883 17.3058C23.9136 17.1748 23.6658 17.2102 23.5348 17.3849C23.4294 17.5254 23.4294 17.7188 23.5348 17.8593L26.2233 20.5674Z" fill="#181818"/>
</g>
<defs>
<filter id="filter0_d" x="0" y="0" width="53" height="46" filterUnits="userSpaceOnUse" color-interpolation-filters="sRGB">
<feFlood flood-opacity="0" result="BackgroundImageFix"/>
<feColorMatrix in="SourceAlpha" type="matrix" values="0 0 0 0 0 0 0 0 0 0 0 0 0 0 0 0 0 0 127 0" result="hardAlpha"/>
<feOffset dy="3"/>
<feGaussianBlur stdDeviation="4"/>
<feComposite in2="hardAlpha" operator="out"/>
<feColorMatrix type="matrix" values="0 0 0 0 0 0 0 0 0 0 0 0 0 0 0 0 0 0 0.6 0"/>
<feBlend mode="normal" in2="BackgroundImageFix" result="effect1_dropShadow"/>
<feBlend mode="normal" in="SourceGraphic" in2="effect1_dropShadow" result="shape"/>
</filter>
<clipPath id="clip0">
<rect width="17" height="17" fill="white" transform="translate(18 11)"/>
</clipPath>
</defs>
</svg>
